<svg xmlns="http://www.w3.org/2000/svg" xmlns:xlink="http://www.w3.org/1999/xlink" viewBox="0 0 370.29 160.62"><defs><style>.cls-1{fill:none;}.cls-2{clip-path:url(#clip-path);}.cls-3{fill:#3a4540;}.cls-4{fill:#00847c;}</style><clipPath id="clip-path" transform="translate(0 0)"><rect class="cls-1" width="370.29" height="160.62"/></clipPath></defs><g id="Layer_2" data-name="Layer 2"><g id="Layer_1-2" data-name="Layer 1"><g class="cls-2"><path class="cls-3" d="M177.5,63.63c0,8.88-6.42,15.21-15.95,15.21-10.14,0-17.35-7.54-17.35-16.89a16.74,16.74,0,0,1,17.07-16.88,16.34,16.34,0,0,1,14.19,7.72l-4.61,2.65a10.83,10.83,0,0,0-9.58-5.16A11.36,11.36,0,0,0,149.55,62c0,6.56,4.74,11.63,12,11.63,5.91,0,9.54-3.07,10.52-7.44H161.22v-4.8H177.5Z" transform="translate(0 0)"/><path class="cls-3" d="M190.06,61.58h7.67a5.45,5.45,0,0,0,0-10.88h-7.67Zm6.32,4.79h-6.32V78.23h-5.35V45.67h13A10.42,10.42,0,0,1,208.2,56.14a10.27,10.27,0,0,1-6.47,9.44l7.4,12.65h-5.86Z" transform="translate(0 0)"/><polygon class="cls-3" points="235.31 73.11 235.31 78.23 215.55 78.23 215.55 45.67 235.08 45.67 235.08 50.79 220.89 50.79 220.89 59.25 233.92 59.25 233.92 64.32 220.89 64.32 220.89 73.11 235.31 73.11"/><polygon class="cls-3" points="262.29 73.11 262.29 78.23 242.52 78.23 242.52 45.67 262.06 45.67 262.06 50.79 247.87 50.79 247.87 59.25 260.89 59.25 260.89 64.32 247.87 64.32 247.87 73.11 262.29 73.11"/><polygon class="cls-3" points="294.38 45.67 294.38 78.23 290.2 78.23 274.85 56.14 274.85 78.23 269.5 78.23 269.5 45.67 273.68 45.67 289.03 67.77 289.03 45.67 294.38 45.67"/><path class="cls-3" d="M163.27,97.56a5.36,5.36,0,0,0-5.44-5.67h-6.66v11.35h6.66a5.39,5.39,0,0,0,5.44-5.68m5.35,0a10.58,10.58,0,0,1-10.79,10.7h-6.66v11.17h-5.34V86.87h12a10.54,10.54,0,0,1,10.79,10.69" transform="translate(0 0)"/><path class="cls-3" d="M202.11,103.15a11.54,11.54,0,1,0-11.54,11.67,11.37,11.37,0,0,0,11.54-11.67m-28.42,0A16.89,16.89,0,1,1,190.57,120a16.77,16.77,0,0,1-16.88-16.88" transform="translate(0 0)"/><polygon class="cls-3" points="210.94 86.87 216.57 86.87 223.41 112.31 230.8 86.87 235.74 86.87 243.08 112.31 249.92 86.87 255.55 86.87 246.34 119.43 240.15 119.43 233.27 95.66 226.34 119.43 220.15 119.43 210.94 86.87"/><polygon class="cls-3" points="281.82 114.31 281.82 119.42 262.06 119.42 262.06 86.87 281.59 86.87 281.59 91.98 267.4 91.98 267.4 100.45 280.43 100.45 280.43 105.52 267.4 105.52 267.4 114.31 281.82 114.31"/><path class="cls-3" d="M294.38,102.77h7.68a5.45,5.45,0,0,0,0-10.88h-7.68Zm6.33,4.8h-6.33v11.86H289V86.87h13a10.42,10.42,0,0,1,10.46,10.46,10.26,10.26,0,0,1-6.46,9.44l7.39,12.66h-5.86Z" transform="translate(0 0)"/><path class="cls-3" d="M169,144.34c0-6.46-4.24-11.16-10.42-11.16h-7.44v22.33h7.44c6.18,0,10.42-4.75,10.42-11.17m5.16,0c0,9.07-6.6,16.28-15.58,16.28H145.83V128.06h12.79c9,0,15.58,7.16,15.58,16.28" transform="translate(0 0)"/><polygon class="cls-3" points="181.41 128.06 181.41 160.62 201.18 160.62 201.18 155.5 186.76 155.5 186.76 146.71 199.78 146.71 199.78 141.64 186.76 141.64 186.76 133.18 200.94 133.18 200.94 128.06 181.41 128.06"/><polygon class="cls-3" points="227.92 128.06 227.92 150.16 212.57 128.06 208.38 128.06 208.38 160.62 213.73 160.62 213.73 138.53 229.08 160.62 233.27 160.62 233.27 128.06 227.92 128.06"/><polygon class="cls-3" points="267.55 128.06 257.69 144.34 247.87 128.06 242.1 128.06 242.1 160.62 247.45 160.62 247.45 137.36 257.36 153.78 258.01 153.78 267.92 137.41 267.92 160.62 273.27 160.62 273.27 128.06 267.55 128.06"/><path class="cls-3" d="M294.1,134.34l5.16,14.7H288.94Zm-3.21-6.28-11.81,32.56h5.81l2.28-6.56H301l2.28,6.56h5.77l-11.77-32.56Z" transform="translate(0 0)"/><path class="cls-3" d="M320.24,144h7.68a5.45,5.45,0,0,0,0-10.88h-7.68Zm6.33,4.79h-6.33v11.86h-5.35V128.06h13a10.42,10.42,0,0,1,10.46,10.47,10.28,10.28,0,0,1-6.46,9.44l7.39,12.65h-5.86Z" transform="translate(0 0)"/><polygon class="cls-3" points="363.45 128.06 351.07 142.67 351.07 128.06 345.73 128.06 345.73 160.62 351.07 160.62 351.07 145.13 363.91 160.62 370.29 160.62 356.66 143.92 369.82 128.06 363.45 128.06"/><path class="cls-4" d="M60,0V16.4l-2.07,0A41.69,41.69,0,0,0,16.46,56.82L16.36,61H0l.09-4.32A58.1,58.1,0,0,1,57.88,0Z" transform="translate(0 0)"/><path class="cls-4" d="M116.73,45.22l-.07,17.33a58.13,58.13,0,0,1-57.8,56.63l-2.06,0v-16.4l2.06,0a41.69,41.69,0,0,0,41.42-40.44l0-1.24H64.12V45.22Z" transform="translate(0 0)"/></g></g></g></svg>