<svg xmlns="http://www.w3.org/2000/svg" viewBox="0 0 680 320"><defs><style>.a{fill:#004684;}</style></defs><title>Operate_Kundelogoer</title><polyline class="a" points="143.84 273.07 153.02 284.56 146.25 284.56 138.03 274.4 138.03 284.56 132.63 284.56 132.63 262.9 138.03 262.9 138.03 272.71 138.12 272.71 144.83 262.9 150.75 262.9 143.84 273.07"/><path class="a" d="M190.58,280.86h-3.2v-5.37h4c2,0,3.45.9,3.45,2.55,0,2-1.09,2.82-4.22,2.82m-3.2-14v-.25h3c2.08,0,2.92,1.25,2.92,2.42s-.84,2.47-2.92,2.47h-3v-4.64m8.19,5.77a4.88,4.88,0,0,0,3-4.31c0-2.42-2.05-5.43-7.17-5.43H182v21.66H192.5c6.33,0,7.67-3.86,7.67-6.34a5.64,5.64,0,0,0-4.6-5.58"/><polyline class="a" points="219.94 284.56 204.2 284.56 204.2 262.9 219.72 262.9 219.72 266.87 209.63 266.87 209.63 271.4 219.25 271.4 219.25 275.38 209.63 275.38 209.63 280.59 219.94 280.59 219.94 284.56"/><polyline class="a" points="547.37 284.56 531.63 284.56 531.63 262.9 547.12 262.9 547.12 266.87 537.03 266.87 537.03 271.4 546.66 271.4 546.66 275.38 537.03 275.38 537.03 280.59 547.37 280.59 547.37 284.56"/><polyline class="a" points="272.54 284.56 267.14 284.56 267.14 275.8 257.08 275.8 257.08 284.56 251.68 284.56 251.68 262.9 257.08 262.9 257.08 271.61 267.14 271.61 267.14 262.9 272.54 262.9 272.54 284.56"/><path class="a" d="M286.76,268.07l-3.17,8.42h6.67l-3.5-8.42m12.69,16.49h-5.83l-1.77-4.28h-9.68l-1.65,4.28H274.8l8.76-21.66h6.24l9.65,21.66"/><polyline class="a" points="307.89 284.86 305.53 284.86 295.29 262.9 301.16 262.9 306.62 275.25 311.8 262.9 317.63 262.9 307.89 284.86"/><polyline class="a" points="341 284.56 336.47 284.56 324.74 270.68 324.74 284.56 319.31 284.56 319.31 262.9 324.28 262.9 335.61 276.15 335.61 262.9 341 262.9 341 284.56"/><polyline class="a" points="526.58 284.56 522.02 284.56 510.28 270.68 510.28 284.56 504.92 284.56 504.92 262.9 509.85 262.9 521.18 276.15 521.18 262.9 526.58 262.9 526.58 284.56"/><polyline class="a" points="246.66 284.56 242.13 284.56 230.4 270.68 230.4 284.56 225 284.56 225 262.9 229.96 262.9 241.26 276.15 241.26 262.9 246.66 262.9 246.66 284.56"/><path class="a" d="M360.56,268.52c-3.17-1.4-5-1.94-6.86-1.94s-3.69.94-3.69,2c0,3.28,11.54,2.11,11.54,9.67,0,4.16-3.51,6.58-8.34,6.58a14.77,14.77,0,0,1-7.83-2.1v-4.67c3.14,2.06,5,2.8,7.42,2.8,2.08,0,3.17-.74,3.17-2,0-3.57-11-2.26-11-10,0-3.76,3.23-6.24,8.26-6.24a17.73,17.73,0,0,1,7.35,1.69v4.22"/><polyline class="a" points="386.57 273.07 396.13 284.56 389.37 284.56 380.76 274.4 380.76 284.56 375.36 284.56 375.36 262.9 380.76 262.9 380.76 272.71 380.82 272.71 387.69 262.9 393.62 262.9 386.57 273.07"/><path class="a" d="M407,267.12a6.74,6.74,0,1,0,6.83,6.73,6.45,6.45,0,0,0-6.83-6.73m0,18c-7.94,0-12.44-5.71-12.44-11.26,0-5.24,4.28-11.24,12.44-11.24s12.38,6,12.38,11.24c0,5.56-4.59,11.26-12.38,11.26"/><polyline class="a" points="441.81 262.9 445.91 262.9 445.91 284.56 440.51 284.56 440.51 271.03 434.65 277.83 433.84 277.83 427.97 271.03 427.97 284.56 422.57 284.56 422.57 262.9 426.67 262.9 434.24 271.81 441.81 262.9"/><polyline class="a" points="470.49 262.9 474.56 262.9 474.56 284.56 469.16 284.56 469.16 271.03 463.32 277.83 462.48 277.83 456.65 271.03 456.65 284.56 451.25 284.56 451.25 262.9 455.32 262.9 462.89 271.81 470.49 262.9"/><path class="a" d="M500.08,262.9v12.54c0,7.18-4.41,9.67-10.35,9.67-6.3,0-10.33-2.92-10.33-9.64V262.9h5.4v12.71c0,3.1,1.77,5,4.87,5,2.86,0,5-1.49,5-5.37V262.9h5.41"/><path class="a" d="M172.51,273.85a6.44,6.44,0,0,1-6.83,6.74,7.34,7.34,0,0,1-3.75-.94l9.93-8.88a7.4,7.4,0,0,1,.65,3.08m-13.72,0c0-4,2.73-6.73,6.89-6.73a7.39,7.39,0,0,1,3.48.83l-9.81,8.78a7.78,7.78,0,0,1-.56-2.88m19.37-8.75-2.73-2.74-2.54,2.25a13,13,0,0,0-7.21-2c-8.19,0-12.44,6-12.44,11.24a11,11,0,0,0,2.14,6.42l-1.89,1.7,2.51,3,2.2-2a13.27,13.27,0,0,0,7.48,2.14c7.76,0,12.39-5.7,12.39-11.26a11,11,0,0,0-2.3-6.59l2.39-2.16"/><polyline class="a" points="402.67 159.35 401.74 121.45 399.39 119.27 399.07 106.05 401.71 103.3 401.71 98.73 371.86 98.73 371.86 103.3 374.5 106.05 374.15 119.27 371.82 121.45 370.89 159.35 402.67 159.35"/><path class="a" d="M398.92,94.47V89.88c0-7.47-5.49-12.72-12.16-12.72s-12.11,5.25-12.11,12.72v4.59h24.27"/><polyline class="a" points="277.32 159.35 278.32 121.45 280.64 119.27 280.95 106.05 278.32 103.3 278.32 98.73 308.2 98.73 308.2 103.3 305.53 106.05 305.87 119.27 308.23 121.45 309.16 159.35 277.32 159.35"/><path class="a" d="M281.11,94.47V89.88c0-7.47,5.49-12.72,12.13-12.72s12.14,5.25,12.14,12.72v4.59H281.11"/><polyline class="a" points="293.24 54.91 291.19 61.48 284.49 59.96 289.18 65.03 284.49 70.09 291.19 68.57 293.24 75.17 295.29 68.57 302.03 70.11 297.37 65.03 302.03 59.96 295.29 61.48 293.24 54.91"/><polyline class="a" points="386.75 54.91 388.83 61.48 395.57 59.96 390.88 65.03 395.57 70.09 388.83 68.57 386.75 75.17 384.74 68.57 378 70.11 382.69 65.03 378 59.96 384.74 61.48 386.75 54.91"/><path class="a" d="M359,159.35l-1.27-47.2,2.48-2.7v-5.88H319.81v5.88l2.45,2.7-1.3,47.2h11.73v-17.7a7.37,7.37,0,1,1,14.71,0v17.7H359"/><polyline class="a" points="356.15 99.51 355.84 88.92 358.29 86.56 358.29 78.74 350.87 78.74 350.87 85.49 343.58 85.49 343.58 78.83 336.41 78.83 336.41 85.49 329.15 85.49 329.15 78.74 321.73 78.74 321.73 86.56 324.18 88.92 323.88 99.51 356.15 99.51"/><polyline class="a" points="354.85 75.61 340.01 50.44 325.21 75.61 354.85 75.61"/><path class="a" d="M334.12,42.07a6.83,6.83,0,0,1,6.49-7.17,6.6,6.6,0,0,1,4.83,1.71.39.39,0,0,1,.1.53.43.43,0,0,1-.53.09,4.06,4.06,0,0,0-2.45-.56A5,5,0,0,0,343,46.6a4.5,4.5,0,0,0,2.41-.79.41.41,0,0,1,.56.06.39.39,0,0,1-.06.51,6.63,6.63,0,0,1-4.65,2.16,6.83,6.83,0,0,1-7.17-6.47"/><path class="a" d="M340,230.71a26.28,26.28,0,0,0,25-18.54c1.33,9.86,10.83,13.05,18.84,8.71a28,28,0,0,0,11.67-12.79.56.56,0,0,0-.13-.79.52.52,0,0,0-.72.23c-2.16,3.11-4.74,5.68-7.72,6.58a16.18,16.18,0,0,1-21.23-13.55c-.06-.38-.25-.59-.56-.62s-.43.2-.56.58c-2.54,9.82-12.22,18.31-24.55,18.31s-22-8.49-24.48-18.31c-.13-.38-.28-.58-.6-.58s-.46.24-.49.62a16.26,16.26,0,0,1-21.29,13.55c-3-.9-5.52-3.47-7.7-6.58-.18-.27-.52-.39-.71-.23s-.25.51-.13.79a28.06,28.06,0,0,0,11.67,12.79c8,4.34,17.51,1.15,18.81-8.71A26.26,26.26,0,0,0,340,230.71"/><path class="a" d="M340,185.17a26.58,26.58,0,0,1-25.29-17.7c-5.31,18.9-29.33,22.51-37.65,9.46-3.13-4.9-4.53-11.9-5.12-18.42a.66.66,0,0,1,.44-.69c.21-.06.49.18.59.52,2.14,8.27,6.23,11,11.45,12.9,12.6,4.56,27.18-1.74,29.88-15.77.07-.4.19-.63.5-.63s.47.23.53.6c2.14,9.62,12.63,17.5,24.67,17.5s22.6-7.88,24.74-17.5c.06-.37.18-.6.5-.6s.46.23.55.63c2.64,14,17.26,20.33,29.86,15.77,5.22-1.93,9.31-4.63,11.45-12.9.1-.34.35-.58.59-.52a.62.62,0,0,1,.41.69c-.62,6.52-2,13.52-5.12,18.42-8.29,13-32.31,9.44-37.62-9.46-3.45,9.22-12.17,17.7-25.36,17.7"/><path class="a" d="M340,207.93c12.76,0,23.06-9.06,25.11-19.35,2.45,16.16,23.37,22.89,33.46,11,3.79-4.47,5.8-10.77,6.89-17.41a.58.58,0,0,0-.34-.72c-.25-.07-.53.15-.62.46-2.24,7.11-5.62,10.46-10.74,12.23-13.5,4.65-25.79-4.69-28-16.34-.09-.39-.21-.62-.55-.66s-.5.19-.53.59c-1.27,6.55-9.93,18-24.71,18s-23.4-11.41-24.61-18c-.09-.4-.28-.59-.59-.59s-.43.27-.5.66c-2.23,11.65-14.49,21-28,16.34-5.09-1.77-8.47-5.12-10.7-12.23-.13-.31-.38-.53-.63-.46a.6.6,0,0,0-.37.72c1.09,6.64,3.13,12.94,6.92,17.41,10.06,11.87,31,5.14,33.42-11,2.09,10.29,12.33,19.35,25.08,19.35"/></svg>