<?xml version="1.0" encoding="UTF-8"?>
<svg width="1200pt" height="1200pt" version="1.1" viewBox="0 0 1200 1200" xmlns="http://www.w3.org/2000/svg">
 <g>
  <path d="m1107.4 736.55-464.39-140.72c-23.391-7.0312-61.781-4.2188-85.594 6.2344l-2.3906 1.0781c-2.5312-6.4219-6.2812-15.609-11.156-24.516-0.5625-0.79688-80.719-117.52-81.469-118.59 2.1562-2.5312 3.5625-4.6875 4.125-6.3281 2.5312 0.09375 3.4688-2.4375 2.4375-4.125-40.453-59.297-39.75-55.875-40.078-61.453 0.28125-9.7031-3.9375-16.359-12.422-19.359-6.0938-1.875-6.2812-6.8438-13.781-18.984-0.79688-1.1719-2.0156-2.7188-7.875-0.98438-0.09375-1.0781-0.32812-2.1562-0.32812-3.2812-1.5938-118.17-12.328-178.5-104.16-220.92-114.23-45.562-224.21 44.391-216.37 155.16 10.594 100.41 64.219 130.03 175.6 169.64 1.2188 0.42188 2.1094 0.89062 3.0469 1.3594 0 2.5781 1.5938 2.9062 8.5781 11.672-75.094 8.4844-147.1 98.25-104.39 153-54.844 35.766-41.625 113.86 13.031 121.18-4.875 13.547-3.375 26.719 2.6719 39.703l-32.906 14.906c-12.422 5.5312-24.609 15.328-17.109 26.156-0.046875 15.328-0.046875 52.641 0.46875 60.141-0.23438 5.6719 5.4375 11.016 17.016 14.531l464.39 140.72c22.922 6.9844 60.328 4.125 83.672-6.0938l417.71-189.14c10.922-4.7812 16.781-10.359 17.672-15.703h0.09375c0.09375-0.98437 0.09375-1.9688-0.09375-2.8125l-0.89062-56.625c9.8438-11.672-0.28125-21.422-15.094-25.828zm-547.78-129.52c22.781-9.9844 59.438-12.703 81.797-6l464.39 140.72c21.094 6.2812 19.172 16.969-1.125 26.109l-71.203 32.25c1.2188-4.9688 25.734 6.7969-469.03-152.26-0.60938-3.5625-5.8125-34.734-5.625-33.609 0-0.14062-0.14062-0.1875-0.1875-0.32812-0.42188-1.6875-1.1719-3.6562-1.8281-5.5781zm-19.734 38.719 19.688 6.2812 14.391 86.391c-1.4531 0.23438-2.9531 0.70312-3.8906 0.9375-18.234 3.5625-20.203 5.25-28.078 9.2812l-78.891-48.047c7.3125-4.5469 4.3594-20.953 2.625-29.391 45.422 26.109 64.266 6.3281 59.812-46.875 0.5625 0.046875 0.65625 0.09375 1.5-0.46875 14.766 9.0469 23.953 11.672 29.109 8.2031 0.046875 0 0.046875-0.046875 0.09375-0.046875l2.3438 14.016-17.016-5.4375c-3.5156-1.125-5.1094 4.0781-1.6875 5.1562zm44.859 140.34c1.8281 1.4062 3.8906-0.375 3.0469-1.9219-0.42188-2.0156-1.0312-4.4062-1.6406-7.125 6.75 2.3906 9.8438 2.4375 9.9844 5.3438 0.14062 2.1094-1.7344 5.25-6.1875 7.125-3.1875 1.0781-8.3906 4.6406-13.359 3.0469-77.156-25.969-76.781-24.188-76.828-26.25-0.09375-4.9219 10.406-13.922 18-11.719l45.891 15.047c1.125 0.9375 19.688 15.188 21.094 16.453zm-250.92-246.52c0.09375-0.375 0.5625-0.9375 0.89062-1.4531 14.859-14.719 50.812-41.812 82.125-61.688l102.56 141.47c6.375 56.016-8.625 74.953-56.297 45.234-0.70312-0.42188-1.5-0.42188-2.25-0.1875l-102.23-140.72c-2.1094-2.9062-6.5156 0.28125-4.4062 3.1875 50.109 68.766 103.88 143.58 105.66 144.84 1.0781 4.9219 4.7344 23.297 0.28125 25.734-6.8906 3.7969-34.125-24.281-39.609-29.906-8.8125-12.938 32.109 46.781-86.719-126.52zm205.36 41.859c3.7969 7.5469 21.422 43.266 13.547 46.312-2.1562 0.79688-8.9531 0.60938-28.266-12.141l-102.98-142.03c29.203-18.094 30.984-16.172 32.062-16.734 0.65625 0.98438 85.312 124.13 85.641 124.6zm-78.094-133.69c-27.516 5.6719-119.39 67.359-137.02 94.547-21.984-31.547-33.188-48.609-36.516-52.312 5.25-5.8594 14.25-13.922 26.297-23.484 3.9844 5.3906 4.6406 8.5312 7.1719 8.5312 2.1562 0 3.4688-2.4375 2.25-4.2188l-5.1094-7.6875c6.7031-5.25 14.062-10.781 22.172-16.688 12.891-9.1875 25.734-17.812 37.734-25.406l12.75 19.875c1.9688 3.0469 6.5625 0.09375 4.5938-2.9531l-12.75-19.875c10.969-6.8438 30.469-18.422 42.422-23.156 2.0625 4.3125-5.625-8.1094 36 52.828zm-202.78 2.7188c1.0781-1.0312-0.84375-3 27.844-25.453l11.344 16.969c-9.5625 7.6406-20.438 16.781-27.188 24.141-1.7812-4.3594-6.0469-8.1094-12-15.656zm92.859-71.438 11.062 17.297c-20.156 12.938-42.281 28.359-60.469 42.281l-11.344-16.969c17.719-13.547 40.312-29.484 60.75-42.609zm57.656-8.6719c-7.0312 2.7656-16.406 7.5938-28.172 14.531-4.3594 2.625-9.0469 5.4844-13.781 8.4844l-11.062-17.297c27.562-17.484 39.562-22.5 42.656-22.641 8.0156 13.734 6.6562 13.359 10.359 16.922zm-329.44-91.078c-7.5469-106.92 98.766-193.55 208.74-149.63 83.719 38.672 99.188 90.188 100.88 215.95 0 1.7812 0.28125 3.4688 0.51562 5.2031-7.7344 3.3281-20.297 10.172-41.109 23.625-18.844 12.094-81.844 55.266-93.562 71.391-1.125-0.51562-2.1094-1.0312-3.4219-1.5-120.56-42.938-162.28-72.797-172.03-165.05zm96.141 457.82c3.3281 0.046875 6.75-0.23438 10.406-0.9375 17.484-3.8906 15.422-17.859 8.8594-20.953-8.3906-4.0312-18.656 7.8281-22.734 16.172-14.578-1.4062-28.922-10.453-36.891-23.438-16.219-26.672-8.1562-67.031 25.219-88.359 34.641 35.859 79.547 2.5312 49.734-13.969-12.891-6.8906-35.578-0.42188-48.656 6.9375-41.391-51.609 30.984-139.08 103.55-145.18 0.9375 1.8281 1.125 3.7969 1.0312 5.25-0.23438 8.7656 4.3125 14.953 13.641 18.469 5.2031 1.7812 1.875 0.375 43.172 59.109 1.3594 1.9219 4.2188 1.7344 4.9219-0.60938 1.3594 0.046875 3.1875-0.28125 5.4375-0.98438 24.516 35.672 71.25 103.78 81.188 118.17l-236.95 107.3c-5.7656-12.375-6.8438-24.844-1.9219-36.984zm2.5781-5.4844c4.2188-7.3125 13.922-16.078 15.75-9.6094 1.9219 6.8906-8.5781 9.3281-15.75 9.6094zm-12.844-114.89c11.016-5.9531 31.688-12 42.328-6.3281 20.859 11.578-14.203 33.984-42.328 6.3281zm-23.438 179.44 276.14-125.02c29.109 29.766 26.578 23.953 118.88 80.906l11.156 6.75c-6.0938-2.0156-30.188-9.8906-28.641-9.375-15.656-4.5938-34.172 18.844-19.969 23.484l75.516 24.891c7.125 2.25 13.125-1.6875 17.156-3.1875 11.766-5.0156 12.562-17.531 2.5781-20.438l-10.125-3.3281c-0.14062-0.46875-0.23437-0.89062-0.46875-1.8281 0.84375-1.6875 1.3125 5.8125-18.656-115.08l464.11 147.98-342.56 155.11c-22.828 10.031-59.531 12.656-81.797 5.8594l-464.39-140.63c-21.422-6.5625-18.984-17.156 1.0781-26.109zm839.76 76.969c-50.672 23.953-50.484 24.234-51.609 24.234-2.8125 0-3.8906-3.8906-1.2188-5.25l50.531-24c3.3281-1.4062 5.4844 3.4219 2.2969 5.0156zm74.719-41.484-50.531 24c-2.625 1.7812-5.9062-3.2344-2.2969-4.9219l50.391-24c3.2344-1.4531 5.7656 3.2812 2.4375 4.9219z"/>
  <path d="m728.48 676.22c10.453 2.0156 26.531-1.2656 35.859-7.2656s8.4375-12.562-2.0156-14.578-26.484 1.2656-35.812 7.2656c-4.8281 3.1406-5.0625 13.266 1.9688 14.578z"/>
  <path d="m672.42 657.14c10.453 2.0156 26.531-1.2188 35.859-7.2656 9.3281-6 8.4375-12.562-2.0156-14.578s-26.484 1.2656-35.812 7.2656c-9.3281 6.0469-8.4844 12.562 1.9688 14.578z"/>
  <path d="m606.89 638.58c10.453 2.0156 26.531-1.2656 35.859-7.2656s8.4375-12.562-2.0156-14.578-26.484 1.2656-35.812 7.2656c-9.3281 6.0469-8.4844 12.562 1.9688 14.578z"/>
  <path d="m723.24 777.71 105.14 36.047c6.0938 2.1094 11.484-1.5 14.906-2.8594 10.266-4.5938 10.875-16.031 2.1562-18.75-1.125-0.375-112.03-38.297-105-35.906-13.594-4.2656-29.812 17.156-17.203 21.469zm13.594-16.547c1.6875 0 2.3438 0.46875 3.4219 0.75 1.2188 0.98438 104.58 35.766 103.5 35.391 4.4531 1.3594 2.0156 6.4688-2.6719 8.5781-2.7656 0.98438-6.9844 4.0312-10.922 2.6719-110.48-38.203-105.94-35.672-105.98-36.984-0.046875-3.4688 6.5625-10.406 12.656-10.406z"/>
  <path d="m607.36 808.13 198.66 67.125c6.1875 2.0156 12.141-2.1094 15.281-3.0938 9-3.8438 10.688-13.031 2.8125-15.375l-198.42-66.938c-12.328-3.6094-28.453 15-18.328 18.281z"/>
  <path d="m733.13 889.6c-7.3594-2.3906-79.969-26.25-75.328-24.703-15.562-4.6406-34.172 18.844-19.969 23.484l75.516 24.844c8.4375 2.8125 27.281-5.0156 26.672-15.656-0.23438-3.7969-2.8594-6.7969-6.8906-7.9688zm-18.094 18.469-75.516-24.844c-5.5781-1.8281 7.5938-15.844 16.688-13.078 80.578 26.719 78.188 24.375 78.375 27.797 0.32812 6.0469-14.438 11.766-19.547 10.125z"/>
  <path d="m437.34 817.18 167.81 55.219c11.812 3.8438 33.328-13.969 18.094-18.469l-167.53-55.031c-2.5781-0.75-5.6719-0.5625-8.6719 0.51562-9.4688 3.4688-17.625 15.188-9.7031 17.766z"/>
  <path d="m252.74 809.29c177.47 58.078 167.76 55.875 172.26 55.875 17.297 0 31.453-19.594 15.328-24.328-3.9844-1.3125-102.28-33.609-167.63-55.031-15.422-4.5938-34.359 18.797-19.969 23.484zm18.375-18.281 167.58 55.031c11.016 3.2344-8.0625 15.891-16.453 13.266-173.9-57.75-169.08-54.516-169.13-56.578-0.09375-5.0156 10.641-13.922 18-11.719z"/>
  <path d="m243.42 262.08 70.688-24c-5.0625 15.469-11.812 30.328-20.109 44.297-1.875 3.1406 2.8594 5.8594 4.6875 2.8125 9.4219-15.891 16.922-32.906 22.219-50.625 0.65625-2.1562-1.4062-4.0781-3.4688-3.375l-75.75 25.734c-3.4688 1.1719-1.6406 6.375 1.7344 5.1562z"/>
  <path d="m284.11 313.08c-107.02-55.594-112.12-69.281-115.88-63.328-0.79688 1.2656-0.42188 2.9531 0.84375 3.75 36.422 22.875 74.297 44.531 112.5 64.406 3.1875 1.6875 5.7188-3.1875 2.5312-4.8281z"/>
  <path d="m232.74 327-55.406 28.078c15.609-50.578 29.203-58.172 23.344-61.406-1.3125-0.70312-3-0.23438-3.7031 1.0781-11.391 20.859-20.344 42.656-26.672 64.828-0.65625 2.2969 1.7812 4.2656 3.8438 3.1875l61.078-30.938c1.3594-0.70312 1.875-2.3438 1.2188-3.6562-0.75-1.3125-2.3906-1.875-3.7031-1.1719z"/>
  <path d="m294.94 169.18c3.0938 1.9219 5.9531-2.6719 2.9531-4.5938-44.391-28.219-102-26.391-144.56 4.9219-2.9062 2.1562 0.375 6.5156 3.2344 4.4062 42.094-30.938 97.406-30.75 138.37-4.7344z"/>
  <path d="m682.92 502.45c-3.5625-0.70312-4.5938 4.6406-1.0781 5.3438 13.547 2.7188 28.031-7.5 29.906-21 1.875-13.688-9.5156-28.078-24.422-30.797-12.703-2.2969-27.188 3-37.828 13.875-19.219 19.594-21.938 48.141-33.797 71.156-1.6406 3.1875 3.1875 5.7188 4.8281 2.4844 11.859-23.016 14.859-51.516 32.859-69.844 9.375-9.5625 22.031-14.25 32.953-12.328 12.141 2.2031 21.516 13.781 20.016 24.703-1.4062 10.359-12.891 18.469-23.438 16.406z"/>
  <path d="m605.68 486c-5.3438 8.4375-9.4219 17.625-12.094 27.234-0.98438 3.5156 4.2656 4.9219 5.25 1.4531 6.375-22.922 15.234-26.625 10.594-29.531-1.2656-0.79688-2.9531-0.42188-3.75 0.84375z"/>
  <path d="m579.37 498.24c5.25-10.125 10.781-22.266 11.719-35.203 2.9062-39.375-39.047-56.344-49.5-22.547-2.6719 8.5781-1.7812 17.766-1.0312 25.828 0.32812 3.6094 5.7656 3.0938 5.4375-0.51562-0.70312-7.5938-1.5-16.172 0.79688-23.719 8.3438-26.953 41.297-12.469 38.859 20.531-0.89062 11.953-6.0938 23.438-11.109 33.094-1.6406 3.2344 3.1875 5.7188 4.8281 2.5312z"/>
  <path d="m568.13 1059.1-204.05-70.828c-3.4688-1.125-5.1562 3.9844-1.7812 5.1562l204.05 70.828c3.5625 1.125 5.1094-3.9844 1.7812-5.1562z"/>
  <path d="m472.69 1062.2c-3.4688-1.125-5.1562 3.9844-1.8281 5.1562 58.547 20.484 56.812 20.156 57.891 20.156 3.0469 0 3.7969-4.2656 0.89062-5.2969z"/>
  <path d="m630 742.82 65.203 22.969c5.2969 1.8281 10.219-1.875 12.891-2.7656 7.5938-3.375 9.0469-11.578 2.3906-13.641l-65.016-22.828c-2.1562-0.65625-4.8281-0.51562-7.3125 0.46875-7.9219 3.0938-14.812 13.5-8.1562 15.797z"/>
  <path d="m544.45 880.26c-25.5-8.9531-67.781-23.766-65.109-22.828-13.594-4.2656-29.766 17.156-17.203 21.422l65.25 22.969c13.219 4.5938 34.219-16.219 17.062-21.562zm-15.281 16.406c-69.141-24.703-66.094-22.641-66.094-23.906-0.09375-4.2656 8.5781-12 14.625-10.172l65.062 22.828c8.625 2.7656-7.0312 13.453-13.594 11.25z"/>
  <path d="m652.03 924.28c-25.5-8.9531-67.781-23.812-65.109-22.875-13.594-4.3125-29.766 17.156-17.203 21.422l65.25 23.016c6.2344 2.1094 11.625-1.5938 14.906-2.8594 10.266-4.5469 10.875-16.031 2.1562-18.703zm-4.4062 13.734c-2.4375 0.84375-6.8906 4.0312-10.875 2.6719-69.281-24.703-66.094-22.688-66.094-23.953-0.09375-4.4531 8.7188-11.953 14.625-10.172l65.062 22.875c4.5 1.4062 1.9219 6.5156-2.7188 8.5781z"/>
 </g>
</svg>
