<?xml version="1.0" encoding="UTF-8"?>
<svg width="1200pt" height="1200pt" version="1.1" viewBox="0 0 1200 1200" xmlns="http://www.w3.org/2000/svg">
 <g>
  <path d="m74.016 858.66c0 14.297 11.625 25.969 25.969 25.969 42.703 0.046875-163.74-0.14062 462.98 0.42188v94.547h-92.531c-1.125 0-1.9219 0.79688-2.3438 1.7812h-53.719c-24.281 0-43.969 19.688-43.969 43.969s19.688 43.969 43.969 43.969h294.28c24.281 0 43.969-19.688 43.969-43.969s-19.688-43.969-43.969-43.969h-56.625c-0.42188-0.98438-1.2188-1.7812-2.3438-1.7812h-81.328v-94.547l433.64 1.9219c14.391 0 26.109-11.719 26.109-26.156l0.046875-279.37c0-1.5-1.2188-2.9531-3.1875-2.5781v-276.56c0-14.297-11.625-25.969-25.969-25.969h-899.02c-14.25 0-25.969 11.578-25.969 25.969zm449.02 150.56h71.625c3.6094 0 3.6094 5.4375 0 5.4375h-71.625c-3.6094 0-3.6094-5.4375 0-5.4375zm178.82 43.5h-247.03c-3.6094 0-3.6094-5.4375 0-5.4375h247.03c3.6094-0.046875 3.6094 5.4375 0 5.4375zm-447.79-541.08c-25.781 32.531-86.062 108.61-88.031 111.61-1.0312 3.0938-6.1875 1.5-4.9219-2.2969 0.1875-0.60938 0.51562-1.5938 90.844-115.45 1.125-1.4062 3.2344-1.3594 4.3125 0l46.406 59.625 30.141-38.906c1.0781-1.4062 3.1875-1.4062 4.3125 0l71.859 92.062c2.2031 2.8594-2.0625 6.1875-4.3125 3.375l-69.656-89.297c-34.828 44.578-27.234 35.672-29.016 37.031l39.516 50.766c0.75 0.98438 0.5625 2.2031-0.09375 3.1406h105.14c3.6094 0 3.6094 5.4375 0 5.4375l-176.81 0.046875c-3.6094 0-3.6094-5.4375 0-5.4375h67.266zm-103.5-29.859c-3-2.0156 0-6.5625 3.0469-4.5469 3.1875 2.1094 13.172 7.4062 16.734 6.7969 2.4375-0.42188 5.2031-4.3125 8.1562-6.2812 5.625-3.75 13.922-2.7188 19.219 2.3438 2.4375 2.2969 4.3594 5.2969 6.5156 5.3906 2.7188-0.46875 3.9375-2.3438 6.1406-5.25 3.7969-4.6875 8.2969-6.9844 12.797-6.6094 7.4062 0.75 12.141 8.3438 15.469 14.25 1.7344 3.1406-3 5.7656-4.7812 2.6719-5.7656-10.359-11.672-16.172-19.219-6.8906-2.7188 3.4688-5.625 7.5-10.547 7.2656-4.875-0.14062-7.6875-4.5938-10.125-6.8906-3.4688-3.3281-8.9062-4.125-12.422-1.7812-5.0156 3.3281-6.7969 9.5156-16.688 6.3281-5.0625-1.5469-9.8906-3.8438-14.297-6.7969zm230.34 17.766c0-10.688 8.625-19.312 19.266-19.312 10.688 0 19.312 8.625 19.312 19.312 0 10.641-8.625 19.312-19.312 19.312-10.641-0.046875-19.266-8.7188-19.266-19.312zm69 187.69 0.1875-1.0312c14.156-68.344 115.12-134.26 220.36-115.78 6.7969 20.062 10.969 40.969 12.281 62.109-8.0156-2.2031-16.125-4.3594-24.188-6.8438-7.875-2.4375-16.922 1.3594-22.969 6.4688-43.266 3.4688-86.484 17.672-125.76 41.672-3.0938 1.9219-0.1875 6.5625 2.8594 4.6406 67.219-41.109 138.32-45.797 161.48-39.422 28.734 7.7344 37.031 41.625 0.5625 50.156-25.453 6.6562-54.891 5.7656-76.031 23.906-9.7969 8.5781-15.938 20.25-23.484 30.047-2.2031 2.8594 2.1562 6.1406 4.3125 3.3281 7.6875-9.9375 13.547-21.234 22.734-29.25 18.75-16.078 45.891-16.172 70.547-22.031-1.5938 2.0156 0.046875 4.5938 2.1562 4.3594 0.84375-0.046874 1.7344 0.14063 2.5781 0.1875-6.6562 29.906-19.031 58.5-36.328 83.766-54.375 23.812-91.688 14.109-95.25 16.266-16.547 10.172-35.953 21.703-56.438 30-18 7.2656-54.703 17.297-71.906 8.625-15.141-7.6875-32.391-37.688-39.094-53.812-7.875-18.938-8.7188-34.453-2.4844-46.125 9.5625-17.953 53.531-41.062 72.188-49.172 0.9375-0.32813 1.5469-1.125 1.6875-2.0625zm499.78-87.047c-96.516 17.344-206.29-3.1406-292.78-61.922 4.4062 8.5312 8.2031 17.344 11.531 26.297-7.8281-1.2656-15.703-2.1094-23.625-2.4844v-105.94c0-7.6406 6.2344-13.875 13.875-13.875h277.08c7.6875 0 13.969 6.2344 13.969 13.875zm-298.5 31.125c-0.32813-0.1875-0.51563-0.51562-0.79688-0.75 3.4219-0.60937 5.4375-0.046874 8.625 0.89063-2.6719-0.09375-5.25-0.14063-7.8281-0.14063zm75.938 122.53c-4.3125 1.0781-5.1094-3.6094-2.5312-4.9219 56.719-28.781 109.64-64.922 157.22-107.34 2.625-2.3438 6.2812 1.6406 3.6094 4.0312-47.906 42.797-101.11 79.219-158.29 108.23zm72.984-110.53c-53.766 33.703-51.328 32.625-52.594 32.625-2.6719 0-3.75-3.6562-1.4062-5.0156l51.047-32.203c3.1875-1.8281 5.9531 2.7188 2.9531 4.5938zm-700.18-361.5h898.92c11.297 0 20.484 9.1875 20.484 20.531v86.344h-939.89v-86.344c0-11.344 9.1875-20.531 20.484-20.531zm-20.484 576.84v-464.53h940.03v187.36c-21.422 6.6562-42.375 13.266-64.359 17.672v-143.02c0-10.641-8.7188-19.312-19.406-19.312h-277.08c-10.641 0-19.312 8.6719-19.312 19.312v105.8c-74.203-1.7812-142.03 34.453-175.64 80.859v-190.18c0-6.2344-5.0156-11.25-11.25-11.25l-303.79 0.046875c-9.7031 0-17.578 7.875-17.578 17.438v196.78c0 7.875 6.3281 14.297 14.297 14.297h303.56c-1.6875 4.5938-3.0469 9.1875-3.9844 14.156l-0.14062 0.84375c-19.875 8.7188-63.281 31.828-73.5 51.047-7.0312 13.172-6.2344 30.234 2.2969 50.766 7.6406 18.375 25.312 48.281 41.625 56.578 18.938 9.5625 56.578-0.42187 76.453-8.4375 20.578-8.3438 39.891-19.781 56.484-29.953 29.438 2.3438 59.297-2.3438 86.812-12.938-36.703 48.891-65.578 59.906-126.47 87.141l-408.52 0.046876c-11.297 0-20.531-9.1875-20.531-20.531zm943.26 2.2031c0 11.438-9.2812 20.719-20.625 20.719-88.031-0.375-423.66-1.875-480.84-2.1562 21.469-9.7969 50.859-13.547 155.63-64.078 5.25-2.5312 10.359-5.25 15.562-7.8281 0.09375 0.1875 0.14062 0.42188 0.23437 0.65625 1.4062 3 6.7031 1.5469 4.6406-3.0938 14.25-7.125 28.359-14.484 42.375-22.078 0.23437 10.453-3.1875 30-10.875 35.625-2.5312 1.875-6.9844 3-10.172 1.5-3.9844-1.875-7.5938 6.1875 3.375 6.1875 3.7969 0 7.5-1.4062 10.031-3.2812 10.125-7.4531 13.688-30.094 12.938-42.938 12.375-6.7969 24.656-13.734 36.844-20.859l-1.2188 61.594c-0.09375 3.6094 5.3906 3.75 5.4375 0.09375l1.2656-64.922c40.453-23.953 70.125-43.078 110.39-72.047l0.32813 18.703c0.09375 3.6562 5.5312 3.5156 5.4375-0.09375l-0.42188-22.594c11.25-8.2031 22.547-16.406 33.562-24.938-1.8281 12.938-0.51562 26.25 4.1719 38.672 3 8.0156 8.0156 14.344 16.594 14.344 10.453 0 6.9844-8.25 2.9531-6.1406-4.125 2.1094-10.5 0.42188-14.438-10.125-5.0625-13.453-5.8125-27.984-2.625-41.906 7.5-5.8594 15-11.766 22.406-17.812 14.391 10.922 22.781 35.109 14.016 55.547-1.4531 3.3281 3.6094 5.4375 5.0156 2.1562 9.3281-21.797 1.6406-47.719-14.766-61.219 36.094-29.484 37.125-29.766 43.828-36.75l8.9531-5.5312z"/>
  <path d="m983.34 744.98v78.234c0 3.6094 5.4375 3.6094 5.4375 0v-78.234c0.046875-3.6094-5.4375-3.6094-5.4375 0z"/>
  <path d="m903.98 747.19c-14.766 22.125-17.109 49.453-6.375 73.078 1.5 3.2812 6.4688 1.0312 4.9688-2.25-9.9375-21.891-7.7344-47.25 5.9531-67.781 9.2812-13.922 21.328-10.594 26.672 3.6094 7.125 19.031 7.8281 39.281 1.875 58.594-1.3594 4.4531-3.375 9.4219-7.8281 12.375-4.3594 2.8594-11.391 2.7188-13.875-0.28125-2.3906-2.7656-6.4688 0.79688-4.1719 3.5156 4.7344 5.5781 15 5.2969 21.047 1.3125 5.9062-3.8906 8.3906-9.9375 10.031-15.328 6.2812-20.438 5.5781-41.953-2.0156-62.109-6.7969-18.094-24.422-22.594-36.281-4.7344z"/>
  <path d="m848.48 747.28 0.375 73.594c0.046875 3.6562 5.4844 3.6094 5.4375 0l-0.375-73.641c0-3.6094-5.4844-3.5625-5.4375 0.046875z"/>
  <path d="m688.64 358.31h223.03c3.6094 0 3.6094-5.4375 0-5.4375l-223.03-0.046875c-3.6094 0-3.6094 5.4844 0 5.4844z"/>
  <path d="m762.94 326.9h154.08c3.6094 0 3.6094-5.4375 0-5.4375h-154.08c-3.6094-0.046875-3.6094 5.4375 0 5.4375z"/>
  <path d="m158.53 363.37c12.703 0 23.016-13.641 23.016-30.469s-10.312-30.469-23.016-30.469-22.969 13.641-22.969 30.469 10.266 30.469 22.969 30.469z"/>
  <path d="m248.58 363.37c12.703 0 23.016-13.641 23.016-30.469s-10.312-30.469-23.016-30.469-22.969 13.641-22.969 30.469 10.312 30.469 22.969 30.469z"/>
  <path d="m338.68 363.37c12.703 0 23.016-13.641 23.016-30.469s-10.312-30.469-23.016-30.469-22.969 13.641-22.969 30.469 10.266 30.469 22.969 30.469z"/>
  <path d="m844.97 536.48-73.031-37.359c-2.0156-0.98438-4.3594 0.42188-4.3594 2.6719l-0.5625 73.406c0 2.2031 2.3438 3.7031 4.3125 2.7188l73.594-36.094c2.2031-1.0781 2.25-4.2188 0.046875-5.3438z"/>
  <path d="m641.95 676.92c1.1719 3.4219 6.3281 1.6406 5.1562-1.7812l-6.6094-19.219c19.922-18.094 48.328 10.453 27 20.578-4.1719 1.9688-9 2.4844-13.734 2.9531-3.375 0.375-3.1406 5.4375 0.28125 5.4375 5.2969-0.5625 10.688-1.0781 15.75-3.4688 10.266-4.875 14.25-15.328 7.125-25.547-9.9844-14.344-30.797-14.438-41.625-2.5312-1.9219 2.2031 0.1875 3.2812 6.6562 23.578z"/>
  <path d="m346.87 716.68h-195.32c-3.6094 0-3.6094 5.4375 0 5.4375h195.32c3.6094 0.046875 3.6094-5.4375 0-5.4375z"/>
  <path d="m226.26 764.02h-71.016c-3.6094 0-3.6094 5.4375 0 5.4375h71.016c3.6094 0 3.6094-5.4375 0-5.4375z"/>
  <path d="m304.74 810.61h-143.58c-3.6094 0-3.6094 5.4375 0 5.4375h143.58c3.6094 0 3.6094-5.4375 0-5.4375z"/>
  <path d="m997.55 953.02c-29.578-10.547-58.734 5.9062-79.828 30.141-5.0625 5.8125-10.5 12.938-12.375 21.609-2.0625 9.6094 1.5 19.453 8.625 23.953 3 1.9219 5.9531-2.6719 2.9062-4.5938-6.0938-3.8438-7.5-12.141-6.1875-18.188 1.5938-7.4062 6.5156-13.828 11.156-19.172 18.797-21.562 44.344-37.312 71.531-29.25-8.2031 9.4688-13.875 21.141-15.844 33.656-4.6875 30.094 19.5 41.625 37.219 26.719 16.969-14.25 16.406-48.516-11.719-62.484 26.859-24.188 66.234-18.984 87.469 4.7344 2.3906 2.6719 6.4688-0.9375 4.0781-3.6562-17.062-19.031-45-26.953-69.516-19.688-10.406 3.0938-19.828 8.7656-27.516 16.219zm13.641 60.656c-13.828 11.672-32.203 3.2812-28.312-21.703 1.9219-12.188 7.6406-23.531 15.938-32.484 26.203 11.531 26.812 42.094 12.375 54.188z"/>
  <path d="m90.469 234.32h251.26c3.6094 0 3.6094-5.4375 0-5.4375l-251.26-0.046875c-3.6094 0-3.6094 5.4844 0 5.4844z"/>
  <path d="m92.016 187.03h82.312c3.6094 0 3.6094-5.4375 0-5.4375h-82.312c-3.6094-0.046875-3.6094 5.4375 0 5.4375z"/>
  <path d="m977.21 174.52c2.7656-2.25-0.65625-6.5156-3.4688-4.2188-2.25 1.8281-5.2969 2.3906-8.625 1.6875-16.828-3.7969-14.578-33.328 18.141-35.719 37.781-2.8125 63.562 32.766 37.312 84.844-1.5938 3.2344 3.2812 5.6719 4.875 2.4375 28.406-56.438-0.9375-95.766-42.609-92.766-27.891 2.0625-38.203 22.688-31.547 36.703 4.4531 9.4688 17.812 13.641 25.922 7.0312z"/>
  <path d="m1050.7 242.86 24.703-28.266c2.3906-2.7188-1.7344-6.2812-4.125-3.6094l-24.703 28.266c-2.3906 2.7188 1.7344 6.3281 4.125 3.6094z"/>
  <path d="m1055.1 279.94c-1.9688 3.0469 2.625 6 4.5938 2.9531 6.7969-10.5 18-17.531 29.25-18.422 12.094-0.84375 24.141 5.4844 29.156 15.609 5.2031 10.547 1.7344 24.469-7.5938 30.469-9.4219 6.0469-24.094 2.2969-28.547-7.7812-1.5-3.3281-6.4219-1.125-5.0156 2.2031 3.8906 8.8594 13.453 13.969 23.109 13.969 20.953 0 31.594-23.625 22.922-41.25-12.281-24.797-49.734-25.875-67.875 2.25z"/>
 </g>
</svg>
