<?xml version="1.0" encoding="UTF-8"?>
<svg width="1200pt" height="1200pt" version="1.1" viewBox="0 0 1200 1200" xmlns="http://www.w3.org/2000/svg">
 <g>
  <path d="m101.06 1093.3c-2.3906-2.625-6.4688 1.0312-3.9844 3.7031 8.7656 9.5156 19.922 16.453 32.344 20.062 3.4688 1.0312 4.9688-4.2188 1.5-5.25-11.438-3.3281-21.75-9.75-29.859-18.516z"/>
  <path d="m139.36 544.45c-36.844 42.797-31.5 102.61 4.9219 139.78-30.469 45.891-7.5469 111.52 54.234 132.47-1.5469 5.6719-1.2656 11.719 0.9375 17.203l-1.4531 1.2188c-7.5938-14.109-26.438-11.906-36.375-1.3594-8.625 9-9.8438 20.578-14.484 30.422-4.4062 9.6562-7.2188 17.672-8.1094 19.922l-25.078 20.812c-2.2031 1.875-0.89062 5.5781 1.9688 5.5781h13.359c-11.859 32.344-26.156 72.328-2.8594 106.59 22.5 33.094 73.594 52.359 110.67 41.766 54.047-15.469 83.062-96.094 107.95-107.58 16.453-7.4062 31.266-22.031 35.578-40.453l111.28 0.09375c-1.3125 5.5312-2.2969 11.016-3.0469 15.703-6.75 41.578-18.047 111.19 29.156 141.84 19.594 12.609 54.328 18.469 74.906 18.469 15.609 0 32.109-3.0469 45.422-13.5 24.984-19.688 18.281-44.344 46.875-87.141 24.047-36.328 52.078-57 73.922-74.438l150.14-32.953c6.4688-1.5 11.156-7.3594 11.156-14.016v-85.078c0-1.5-1.2188-2.7188-2.7188-2.7188-62.297 0-476.21 2.9531-652.26 4.0312-1.6406 0-3.2812 0.5625-4.4531 1.6406l-22.969 19.125c-9.6094-7.875-29.25-6.0469-37.406 9.7969-57.844-19.359-80.062-80.156-52.266-123.52 11.484 10.594 27.328 20.062 42.984 18.562 33.562-3.0938 34.781-46.078 1.875-50.484-17.484-2.3906-35.109 9.4688-45.656 23.438-33.844-35.438-38.859-92.297-3.0469-132.71 19.594 9.2812 39.703 10.734 56.766 3.9844 30.328-12 24.234-49.5-13.031-38.625-16.922 5.0625-32.438 14.672-45 27.938-46.5-23.859-72-86.672-59.344-142.55 19.125-84.422 110.53-139.78 209.81-114.98 0.46875 16.406 11.484 30.094 26.531 34.734v308.48c0 17.391 14.156 31.5 31.5 31.5h274.6v45.141l-114.56 0.046875c-14.344 0-26.016 11.625-26.016 26.016h317.63v-71.109c119.58-0.14062 213.94 0.23438 265.55-0.65625 15.938 0 28.781-12.891 28.781-28.781l0.046876-436.64c0-15.938-12.891-28.781-28.781-28.781h-20.906c-5.2031-3.2344-10.828-4.7812-16.641-4.7812h-679.78c-17.391 0-31.5 14.156-31.5 31.547v56.484c-13.969 4.2188-24.422 16.312-26.25 31.266-101.62-24.844-195.71 32.109-215.44 119.34-14.109 62.156 15.797 123.94 60.891 147.89zm203.44 401.86c-27.703 12.75-54.422 92.203-107.16 107.3-32.719 9.3281-82.266-6.6562-104.67-39.609-21.984-32.25-8.2969-69.609 3.7969-102.61 0.70312-1.9219 9.8438-28.406 17.344-44.906 4.7344-10.125 5.9062-21.047 13.5-28.969 6-6.375 17.062-9.4688 24.047-4.1719 3.8906 3.0469 6.0469 8.8594 6.375 13.781v0.28125c-0.32812 0.23438-0.75 0.42188-0.9375 0.79688-4.6406 9.1406-7.5938 18.891-8.7656 29.016-0.42188 3.5625 4.9688 4.2656 5.3906 0.60938 0.46875-3.9375 1.3594-7.7344 2.3906-11.531 1.3125 1.875 4.2656 1.4531 4.875-0.84375 1.875-7.2656 1.875-9.8906 2.0156-10.969 1.6875-6.0469 3.8906-10.453 6.8438-13.875 9.4219-10.734 27.516-10.688 27.703 11.859-0.046875 0.046875-0.09375 0.046875-0.14062 0.14062-3.8906 8.5312-6.375 17.578-7.4062 26.859-0.42188 3.5625 5.0156 4.2188 5.3906 0.60938 0.5625-5.2969 1.875-10.5 3.4688-15.562 0.1875 0.046875 0.23438 0.23438 0.42188 0.28125 1.5 0.1875 2.8125-0.70312 3.0938-2.1094 2.3438-10.828 7.6875-20.578 15.516-28.172 11.297-11.062 20.391-4.4062 18.516 9.7969-0.046875 0.23438 0.14062 0.46875 0.1875 0.70312-7.3125 19.125-12.094 39-13.922 59.438-0.32812 3.5625 5.1094 4.125 5.4375 0.46875 1.9688-22.359 7.4062-44.156 16.172-64.828 0.28125-0.70312 0.28125-1.4531 0-2.1094 3.3281-7.5 8.7188-14.391 15.797-19.828 16.875-13.266 42.656-17.203 52.172-14.344 10.688 3.1875 13.969 13.594 4.9219 23.062-8.625 8.8594-36.984 18.188-54.234 57.188-7.0312 15.938 0.32812 25.266 9.8438 24.656-6.5156 6.75-13.641 12.891-21.375 18.141-3.0469 2.0625 0.14062 6.5156 3.0469 4.5 8.9531-6.0469 17.203-13.172 24.609-21.141 0.84375-0.9375 0.75-2.2031 0.14062-3.2344 8.5312-3.9375 17.438-16.125 27.562-22.125 14.297-8.5781 29.016-3.5625 31.125 13.594 2.1562 15.234-9.0938 37.031-33.094 47.859zm43.453-81.047h-67.453c1.4062-1.8281 2.7656-3.7031 4.3125-5.4375h63.141c3.6094 0 3.6094 5.4375 0 5.4375zm79.875-3.1875h47.531c-1.4062 1.7812-2.7656 3.5625-4.0781 5.4375h-43.453c-3.6094 0-3.6094-5.4375 0-5.4375zm93.469 5.4375h-13.547c-0.32812-1.1719-0.60938-2.3438-0.98438-3.5156-0.23438-0.70312-0.5625-1.2656-0.84375-1.9219h17.672c-0.79688 1.7344-1.5469 3.6562-2.2969 5.4375zm121.03 115.78c-28.641 42.938-22.453 67.594-45.656 85.875-15.234 11.953-37.078 15.094-68.672 9.8438-13.594-2.2031-30.984-5.9062-45.328-15.094-44.156-28.688-33.234-96.094-26.719-136.36 3.8438-23.438 9.9844-46.547 25.453-64.453 8.1562-9.7031 15.797-9.8438 20.203 2.7188 9.0469 26.531 0.75 56.531 2.6719 60.375l-3.8906 20.812c-3.6562-0.09375-7.3125 0.375-10.688 1.6406-3.375 1.2188-1.5 6.375 1.875 5.1094 6.1875-2.2969 13.406-1.8281 19.312 1.2656 3.1875 1.6875 5.7188-3.1406 2.5312-4.8281-2.3906-1.2656-4.9688-2.0156-7.5938-2.5312 5.3906-30.516 5.25-25.547 4.6875-27.609 11.625-51.047 24.516-72.234 45.328-96.047 9.3281-10.594 25.172-28.781 37.547-21.797 8.1094 4.5938 6 15.281 3.1875 24.094-2.3906 7.8281-5.5312 15.75-8.9531 23.719-0.89062-0.046875-1.7812 0.14062-2.3906 0.9375-10.453 14.391-19.734 29.766-27.516 45.75-0.32812 0.60938-0.28125 1.3125-0.14062 1.9219-2.25-1.0312-4.5-1.9688-6.8438-2.5781-3.4219-0.9375-4.875 4.3594-1.3594 5.2969 10.734 2.7188 13.172 7.6406 15.656 7.6406 2.5781 0 3.7031-3.2344 1.7344-4.8281-1.7812-1.4531-3.7969-2.625-5.7656-3.75 3.0469-0.98438 0.65625-3.1406 19.266-32.016 1.125 2.3438 3.8438 1.9219 4.7812 0.1875 13.406-25.312 30-53.438 57.422-66 3.9375-1.7812 13.734-5.4375 19.688-0.75 17.25 13.453-21.234 60.75-21.516 64.641-14.062 12.516-26.484 26.719-36.938 42.375l-6.7031-5.4375c-2.8594-2.2969-6.2344 2.0156-3.4219 4.2188 17.625 13.969 16.875 14.203 18.609 14.203 2.5312 0 3.7031-3.2344 1.7344-4.8281l-5.9062-4.7812c11.156-16.828 24.609-31.969 39.984-45.047 0.84375-0.70312 0.9375-1.7344 0.65625-2.7188 7.4062-8.5312 28.922-26.438 38.391-20.438 11.438 7.3125-5.7188 38.297-13.594 49.453-13.547 10.031-25.219 22.828-33.844 37.266l-4.9688-3.6562c-2.9062-2.1562-6.1406 2.25-3.2344 4.4062 15.609 11.25 15 11.625 16.641 11.625 2.625 0 3.75-3.375 1.6406-4.9219l-5.625-4.1719c7.8281-13.266 18.375-24.984 30.562-34.453 3-0.23438 10.781-8.6719 19.172-14.953 22.219-16.688 40.359-2.9531 33 12.234l-0.14062 0.28125c-4.7812 13.078-47.391 30.281-84.328 86.156zm234.28-197.02v78.609c0 4.125-2.9062 7.7812-6.9375 8.6719l-141.56 31.078c0.1875-0.28125 0.46875-0.46875 0.70312-0.70312 2.0156-2.7188 3.4688-5.8125 4.3125-9.0469zm-109.41 29.062h-95.344c0.32812-3.2812 0.23437-3.0469 0-5.4375h95.391c3.5625-0.046875 3.5625 5.4375-0.046874 5.4375zm-343.18-4.6875h89.812c3.6094 0 3.6094 5.4375 0 5.4375h-89.812c-3.6094 0-3.6094-5.4375 0-5.4375zm-74.766-2.9062h-23.625c-1.1719-2.1094-2.8594-3.8906-4.875-5.4375h28.5c3.6094 0 3.6094 5.4375 0 5.4375zm-83.344-5.4375h12.516c-4.5 1.5-8.7188 3.2812-12.609 5.3906-3.6094-0.14062-3.375-5.3906 0.09375-5.3906zm-70.641 3.1875-29.719 24.703c-5.9531-19.688 15.797-34.031 29.719-24.703zm-41.203-143.86c26.578 3.5625 25.312 37.172-1.6406 39.656-14.203 1.3125-29.016-7.9219-39.375-17.672 9.3281-12.797 25.359-24 41.016-21.984zm-2.7188-144.05c29.344-8.5312 34.781 18.281 9.4688 28.312-15.234 6-33.141 4.875-50.859-3.0938 11.719-11.953 25.969-20.625 41.391-25.219zm442.03 139.92h145.74v45.141h-145.74zm-306.1-468.1c0-14.391 11.719-26.062 26.062-26.062h679.74c14.531 0 26.062 11.859 26.062 26.062v436.6c0 14.391-11.719 26.062-26.062 26.062h-679.74c-14.391 0-26.062-11.672-26.062-26.062z"/>
  <path d="m403.55 605.53h576.05c14.953 0 27.141-11.438 27.141-25.453l-0.046875-344.68c0-14.016-12.188-25.453-27.141-25.453h-576c-14.953 0-27.141 11.438-27.141 25.453v344.68c0 14.016 12.141 25.453 27.141 25.453zm-21.703-370.13c0-11.016 9.7031-20.016 21.656-20.016h576.05c11.953 0 21.656 8.9531 21.656 20.016v344.68c0 11.016-9.7031 20.016-21.656 20.016l-576-0.046875c-11.953 0-21.656-8.9531-21.656-20.016-0.046875-127.18-0.046875-225.52-0.046875-344.63z"/>
  <path d="m1081.5 874.22c-21.938-0.60938-38.297-1.0781-50.531-1.4062-0.375-0.89062-1.0312-1.6875-2.0625-1.7812-4.4062-0.46875-8.8125 0.046875-13.031 1.3594-20.672-0.5625-21.422-0.60938-21.422-0.60938-33.75-0.70312-64.688 18.562-75.75 62.062-1.0312 2.8125 0.32812 5.25 5.0625 4.875h100.45c1.5 0 2.3906-1.1719 2.3906-2.6719 102.66 0.70312 95.766 1.0781 97.125-0.09375 1.7344-1.5 1.3594-4.0781 1.3594-6.0938 0-26.297-18.938-48.047-43.641-52.266zm-60.047 59.062h-97.125c6.75-34.969 37.875-57.281 69.938-56.062 0.09375 0 4.6875 0.14062 11.578 0.32812-7.125 5.4375-11.297 13.406-12.328 21.516-0.42188 3.5625 4.9688 4.3125 5.3906 0.65625 1.1719-9.375 7.3125-18.234 17.812-21.891 12.797 0.375 28.688 0.79688 41.578 1.1719-24.75 7.3125-39.797 31.875-36.844 54.281zm70.547-35.109c5.1094 7.6875-3.7969 12.141-12.797 13.547-10.781 1.6406-11.953-8.2031-7.2656-10.641 3.1406-1.6875 5.7188 3.1875 2.4844 4.8281 2.8125 1.5 9-0.70312 11.859-2.1562 2.1562-1.0781 1.9688-1.3594 1.1719-2.5781-7.0781-10.781-25.312-10.641-35.812 4.8281-2.0156 3-3.0938 5.625-3.2812 8.1094-0.23438 3.1875 0.46875 4.6875 1.4062 5.5781h58.969c3.6094 0 3.6094 5.4375 0 5.4375-63.047-0.1875-60.188 0.46875-61.547-0.51562-6.5156-4.6875-5.0156-14.344 0-21.703 12.516-18.422 35.438-19.031 44.812-4.7344z"/>
  <path d="m399.79 306.42h449.63c3.6094 0 3.6094-5.4375 0-5.4375h-449.63c-3.6094 0-3.6094 5.4375 0 5.4375z"/>
  <path d="m436.55 274.13c8.7656 0 15.844-7.2656 15.844-16.266 0-8.9531-7.125-16.266-15.844-16.266-8.7656 0-15.844 7.2656-15.844 16.266-0.046875 9 7.0781 16.266 15.844 16.266z"/>
  <path d="m494.11 274.13c8.7656 0 15.844-7.2656 15.844-16.266 0-8.9531-7.0781-16.266-15.844-16.266s-15.844 7.2656-15.844 16.266 7.0781 16.266 15.844 16.266z"/>
  <path d="m551.68 274.13c8.7656 0 15.844-7.2656 15.844-16.266 0-8.9531-7.125-16.266-15.844-16.266-8.7656 0-15.844 7.2656-15.844 16.266s7.0781 16.266 15.844 16.266z"/>
  <path d="m930.84 537.66v-172.64c0-3.6094-5.4375-3.6094-5.4375 0v172.64c0 3.6094 5.4375 3.5625 5.4375 0z"/>
  <path d="m732.56 1044.7-8.2969-56.719c-0.46875-3.5625-5.9531-2.8125-5.3906 0.79687l8.2969 56.719c0.51562 3.5156 5.9531 2.7656 5.3906-0.79687z"/>
  <path d="m744.84 973.31c-2.5312-2.5312-6.4219 1.2656-3.8906 3.8438 9 9.0938 20.672 13.969 22.5 13.969 3.0469 0 3.7969-4.2188 0.9375-5.2969-7.3125-2.6719-14.109-6.9844-19.547-12.516z"/>
  <path d="m800.95 937.92-65.812 8.1094c-3.375 0.42188-3.0938 5.4375 0.32812 5.4375 22.312-2.7656 68.953-8.4844 66.141-8.1562 3.6562-0.42188 2.8125-5.9062-0.65625-5.3906z"/>
  <path d="m151.26 1086.6c-19.312-4.2188-34.781-21.609-36.703-41.297-0.32812-3.4688-5.8125-3.1406-5.4375 0.51562 2.1562 21.984 19.406 41.391 40.969 46.078 3.5156 0.79688 4.6406-4.5469 1.1719-5.2969z"/>
  <path d="m188.29 167.29h0.14062c3.5156 0 3.6562-5.2969 0.14062-5.4375-24.281-1.125-27.75-32.625 2.7188-30.938 21.938 1.4062 40.922 16.5 56.953 30.516 2.7656 2.3906 6.2812-1.7344 3.6094-4.125-16.734-14.625-36.562-30.375-60.234-31.875-37.594-2.4375-34.828 40.406-3.3281 41.859z"/>
  <path d="m270.05 145.6c2.2969 0 3.5625-2.6719 2.1094-4.4531-7.125-8.7188-15.562-16.172-25.078-22.172-3.0469-1.9219-5.9531 2.7188-2.9062 4.6406 19.922 12.469 22.172 21.984 25.875 21.984z"/>
  <path d="m305.29 138.61c3.0938 1.8281 5.8594-2.9062 2.7188-4.7344-10.641-6.1406-22.922-13.359-25.922-25.969-1.4062-5.9531 0.09375-12.281 3.8438-16.031 3.8906-3.9375 10.641-4.7812 14.672-1.7812 2.9531 2.1094 6.1406-2.25 3.2344-4.4062-6.1875-4.5469-15.984-3.5156-21.797 2.3438-5.1094 5.1562-7.125 13.266-5.25 21.141 3.375 14.438 16.547 22.547 28.5 29.438z"/>
  <path d="m504.61 365.21v152.21c0 9.2812 7.5 16.781 16.781 16.781h350.76c9.2812 0 16.781-7.5 16.781-16.781v-152.21c0-9.2812-7.5-16.781-16.781-16.781h-350.76c-9.2812 0-16.781 7.5-16.781 16.781zm239.02 52.734 5.7656 2.7656 73.219 29.625c4.125 1.6875-0.75 6.75-2.9531 7.2188-72.984 25.031-71.812 24.891-72.891 24.891-3.0938 0-3.7969-4.3125-0.89062-5.2969l69.469-23.859-74.109-30.469c-3.2812-1.5469-0.84375-6.4688 2.3906-4.875zm-65.953-26.578 42.938 116.48c1.2656 3.375-3.8906 5.25-5.1094 1.875l-42.938-116.48c-1.2188-3.375 3.8906-5.25 5.1094-1.875zm-43.031 27.328c3.3281-1.4531 5.4844 3.5156 2.2031 4.9688l-54.469 24.188 66.984 39.656c3.0938 1.8281 0.32812 6.5156-2.7656 4.6875-73.594-44.25-73.031-41.672-72.891-44.859 0.23438-3.0938 0.23438-1.0312 60.938-28.641z"/>
 </g>
</svg>
