<?xml version="1.0" encoding="utf-8"?>
<!-- Generator: Adobe Illustrator 27.3.1, SVG Export Plug-In . SVG Version: 6.00 Build 0)  -->
<svg version="1.1" id="Layer_1" xmlns="http://www.w3.org/2000/svg" xmlns:xlink="http://www.w3.org/1999/xlink" x="0px" y="0px"
	 viewBox="0 0 492.3 141.7" style="enable-background:new 0 0 492.3 141.7;" xml:space="preserve">
<style type="text/css">
	.st0{fill:#F0281E;}
	.st1{fill:#FFFFFF;}
</style>
<g>
	<rect x="0" y="0" class="st0" width="492.3" height="141.7"/>
	<path class="st1" d="M87.2,36.6c-15.1,0-18.5,2.3-18.5,12.5v9.9c0,11.3,4.4,13.1,18.5,13.1c14.7,0,18.7-2.8,18.7-13.1v-9.9
		C105.9,38.4,101,36.6,87.2,36.6z M98.8,49.1v9.9c0,8-3.7,8.8-11.5,8.8c-9.1,0-11.4-0.9-11.4-8.8l0-9.9c0.2-6.5,1.6-8.2,11.4-8.2
		c4.9,0,8.2,0.2,10,2.2C98.4,44.3,98.9,46.2,98.8,49.1z M144.8,36.9c0,0-12.6,0-14.2,0c0,1.6,0,33.2,0,34.8c1.3,0,6.5,0,7.8,0
		c0-1.7,0-30.6,0-30.6h6.4c4.2,0,6.3,0.4,7.6,1.7c1.3,1.2,1.5,3.1,1.5,5.7c0,3.5-0.8,5.9-4.5,6.7c0.1,0.9,0.2,2.9,0.2,3.9
		c9-0.5,12.1-2.2,12.1-10.6C161.6,39.3,158.2,36.9,144.8,36.9z M265.9,47c-0.4-7.4-3.4-9.9-14.2-10.1c0,0-16,0-17.7,0
		c0,1.6,0,33.2,0,34.8c1.3,0,6.5,0,7.8,0c0-1.7,0-30.6,0-30.6h7.3c6.8,0,9,0.9,9,7c0,4.7-1.9,6.8-6.5,7.4c0,1,0.1,2.8,0.1,3.7
		c4.1,0.6,6,3.7,6,6.6c0,0,0,4.6,0,5.9c1.3,0,6.5,0,7.8,0c0-1.3,0-5.9,0-5.9c0-4.6-2.5-7.8-8.9-8.2C256.6,57.6,266.4,57.7,265.9,47z
		 M300.4,36.9c-0.4,1-12.3,32.6-13.2,34.8c1.6,0,6.7,0,7.4,0c0.3-0.9,2.6-6.9,2.6-6.9h19c0,0,2.4,6,2.7,6.9c0.7,0,5.4,0,7,0
		c-0.9-2.3-13.1-33.9-13.4-34.8C311.6,36.9,301.3,36.9,300.4,36.9z M298.4,61.2L306,41l0.8-1.8l8.3,22H298.4z M340.5,41.1
		c1.6,0,12.1,0,12.1,0s0,28.9,0,30.6c1.3,0,6.5,0,7.8,0c0-1.7,0-30.6,0-30.6s9.9,0,11.5,0c0-1.1,0-3.2,0-4.2c-1.6,0-29.7,0-31.3,0
		C340.5,37.9,340.5,40.1,340.5,41.1z M189.9,56c0,0,6.8,0,12.2,0v-3.3c-5.4-0.1-12.2-0.2-12.2-0.2V41.1c0,0,18.2,0,19.7,0
		c0-1.1,0-3.2,0-4.2c-1.5,0-25.4,0-26.8,0c0,1.6,0,33.2,0,34.8c1.5,0,25.5,0,27,0c0-1.1,0-3.2,0-4.2c-1.5,0-19.9,0-19.9,0V56z
		 M401.1,67.5V56c0,0,7.4,0,12.9,0v-3.3c-5.5-0.1-12.9-0.2-12.9-0.2V41.1c0,0,18.3,0,19.8,0c0-1.1,0-3.2,0-4.2c-1.5,0-25.4,0-26.9,0
		c0,1.6,0,33.2,0,34.8c1.5,0,25.6,0,27,0c0-1.1,0-3.2,0-4.2C419.5,67.5,401.1,67.5,401.1,67.5z"/>
	<g>
		<path class="st1" d="M149.2,96.2v17.6h-3.9V96.2h-6.1v-2.7h16.1v2.7H149.2z"/>
		<path class="st1" d="M161.1,113.8V93.4H174v2.7h-9v5.7h8.8v2.7H165v6.5h9.2v2.7H161.1z"/>
		<path class="st1" d="M188,114.1c-5,0-8.1-3.9-8.1-10.4c0-6.8,3.3-10.6,8.9-10.6c1.7,0,3.3,0.3,5.8,0.9l-0.6,2.7
			c-2-0.4-3.4-0.6-4.6-0.6c-3.9,0-5.4,3-5.4,7.4c0,5,1.7,7.6,4.9,7.6c1.2,0,2.7-0.2,5.4-1l0.8,2.6
			C192.1,113.7,189.9,114.1,188,114.1z"/>
		<path class="st1" d="M212.7,113.8v-9.3h-8v9.3h-3.9V93.4h3.9v8.3h8v-8.3h3.9v20.4H212.7z"/>
		<path class="st1" d="M235.2,113.8l-7.7-16.5l0.2,16.5h-3.2V93.4h5.1l7.7,16.6l-0.2-16.6h3.2v20.4H235.2z"/>
		<path class="st1" d="M256.2,114.1c-5.7,0-8.9-3.7-8.9-10.5c0-6.7,3.2-10.5,8.9-10.5c5.7,0,8.9,3.8,8.9,10.5
			C265.1,110.4,261.9,114.1,256.2,114.1z M256.2,96c-3.2,0-4.9,2.6-4.9,7.6c0,2.5,0.5,4.7,1.2,5.9c0.8,1.1,2,1.7,3.6,1.7
			c3.3,0,4.8-2.4,4.8-7.6C261,98.5,259.5,96,256.2,96z"/>
		<path class="st1" d="M272,113.8V93.4h3.9V111h8.9v2.7H272z"/>
		<path class="st1" d="M297.1,114.1c-5.7,0-8.9-3.7-8.9-10.5c0-6.7,3.2-10.5,8.9-10.5c5.7,0,8.9,3.8,8.9,10.5
			C306,110.4,302.8,114.1,297.1,114.1z M297.1,96c-3.2,0-4.9,2.6-4.9,7.6c0,2.5,0.5,4.7,1.2,5.9c0.8,1.1,2,1.7,3.6,1.7
			c3.3,0,4.8-2.4,4.8-7.6C301.9,98.5,300.4,96,297.1,96z"/>
		<path class="st1" d="M320.4,114.1c-5.3,0-8.4-3.8-8.4-10.5c0-6.8,3.3-10.5,8.9-10.5c1.6,0,3.8,0.3,6.6,1.1l-0.6,2.6
			c-2.6-0.6-4.2-0.7-5.5-0.7c-3.6,0-5.3,2.4-5.3,7.5c0,2.6,0.5,4.6,1.4,5.9c0.8,1.1,1.9,1.6,3.6,1.6c1.4,0,2.7-0.2,3.4-0.5v-6.5h3.7
			v8.2C324.7,113.7,322.5,114.1,320.4,114.1z"/>
		<path class="st1" d="M343.9,104.8v8.9H340v-8.9l-6.9-11.4h4.5l4.7,8.6l4.7-8.6h3.8L343.9,104.8z"/>
	</g>
</g>
</svg>
