<?xml version="1.0" encoding="UTF-8"?>
<svg width="1200pt" height="1200pt" version="1.1" viewBox="0 0 1200 1200" xmlns="http://www.w3.org/2000/svg">
 <g>
  <path d="m1103.1 438.1h-356.16c-28.969-91.172-78.516-152.29-135.05-155.21h-0.09375v-0.09375l-89.062-2.3906c-77.906-6.1406-128.39 89.297-150.94 164.95h-255.24c-21.047 0-38.203 17.953-38.203 40.031v57.797c0 21.891 17.156 39.703 38.203 39.703h231.98c-1.8281 29.203-1.6406 59.297 0.32812 87.703-0.60938 1.0781-1.2656 2.2031-1.5938 3.4219-0.28125 1.125-8.625 32.016-8.1094 30.094h-115.97c-13.078 0-23.766 10.641-23.766 23.766v141.24c0 13.078 10.641 23.766 23.766 23.766 19.172 0-69.422 0 187.45 0.046875 24.328 39.703 61.453 76.5 107.77 75.234 0.14062 0.28125 0.32812 0.60938 0.32812 0.60938 19.172-0.70312-31.641 1.2656 97.922-3.8906 46.734-5.1094 88.406-50.016 117.05-118.45h341.72c11.812 0 22.125-9.5156 22.969-21.188l26.531-361.92c1.0312-13.641-8.5312-25.219-21.844-25.219zm-218.39 335.02c0 7.5938-5.625 13.734-12.609 13.734h-118.41c3.9375-14.859 7.3594-30.422 10.219-46.547 1.9688 4.0781 6.1875 4.8281 9.2344 3.1406l19.594-11.062c1.0781-0.60938 1.0781 0.23438 20.672 11.062 4.9219 2.7656 10.828-1.5469 9.8906-7.4062l-3.75-23.438c-0.28125-1.6875 0.23438-0.9375 16.312-18.141 3.8906-4.0781 1.7344-11.109-3.7969-12l-21.891-3.4219c-1.2188-0.1875-0.70312-0.70312-10.781-22.172-2.2969-4.9219-9.9375-4.9219-12.188 0-10.031 21.422-9.5625 21.984-10.781 22.172l-4.7812 0.75c2.1562-26.953 2.625-51.141 1.9688-75.562h32.719c3.6094 0 3.6094-5.4375 0-5.4375h-32.906c-0.51562-13.781-1.3594-27.375-2.625-40.688h101.44c6.9375 0 12.609 6.1875 12.609 13.734-0.14063 45.094-0.14063 158.86-0.14063 201.28zm-66.844-36.188c0.1875 1.2656-0.79687 2.3438-1.8281 1.7812l-19.594-11.062c-2.0156-1.1719-4.4531-1.125-6.4219 0-20.062 11.109-19.641 11.719-20.766 11.016-1.6406-1.125-0.09375-2.625 3.0938-25.125 0.75-4.6875-2.5781-6.5625-3.3281-7.6875 0.79688-6.7031 1.5-13.5 2.1094-20.391 3.75-1.0312 8.9531 0 11.203-4.875l9.7969-21.328c0.65625-1.4531 1.6406-1.4531 2.2969 0l9.7969 21.328c0.98437 2.1094 2.8594 3.5625 5.1094 3.9375l21.891 3.4219c1.0312 0.14062 1.5938 1.875 0.70312 2.8125-13.219 15-18.703 16.688-17.719 22.781zm-75.234-131.9c3.5625 0 3.5625 5.3906 0 5.3906h-57.656c-0.046876-1.7812-0.046876-3.6094-0.09375-5.3906zm-67.031 132.61h78.234c3.5625 0 3.5625 5.3906 0 5.3906-39.938-0.09375-77.344 0.1875-79.125-0.1875 0.28125-1.7344 0.5625-3.4688 0.89063-5.2031zm41.391-306.28c3.5625 0 3.5625 5.3906 0 5.3906h-59.203c-0.5625-1.7812-1.125-3.5625-1.6875-5.2969 20.062 0 63.609-0.09375 60.891-0.09375zm-72.797-109.73c3.5625 0 3.5625 5.3906 0 5.3906h-42.984c-1.4062-1.6875-2.8125-3.375-4.2188-4.9688 1.7812-0.9375-3.8906-0.14062 47.203-0.42188zm-560.39 221.53v-57.797c0-19.078 14.672-34.594 32.766-34.594h441.19c3.6094 0 3.6094-5.4375 0-5.4375h-65.156c12.844-39.188 29.719-69.609 49.031-87.094 44.109 37.688 76.031 144.32 76.031 269.76 0 120.37-29.719 227.39-74.156 268.13-22.875-20.906-42.75-60.562-56.062-112.45-0.65625-112.78 0.89062-104.53-0.75-110.06-2.25-7.4062-8.6719-11.531-15.328-11.531h-1.2188c-1.3125-25.547-1.2656-50.578 0.5625-79.172h87c3.6094 0 3.6094-5.4375 0-5.4375l-441.14-0.046875c-18.047 0-32.766-15.375-32.766-34.266zm307.74 39.75c-1.875 28.828-1.8281 53.391-0.5625 79.172-25.406 0.79688-29.719-1.9688-36.938 2.8594-1.6875-27.703-1.7812-54.234-0.046875-82.031zm-186.66 286.22v-141.24c0-10.078 8.2031-18.281 18.281-18.281 75.891 0.42188-151.18-0.51562 225.79 1.125 3.6094 0 3.6094-5.4375 0-5.4375h-104.48c0.28125-1.125 8.5781-31.734 8.0625-29.812 1.2656-4.6406 5.5312-7.875 10.312-7.875h108.52c4.3594 0 8.1562 2.6719 9.75 6.5625 1.5938 3.7969 0.51563-7.5 0.84375 205.4 0 4.125-3.4219 7.9219-7.9219 7.9219l-250.82-0.09375c-10.125 0-18.328-8.2031-18.328-18.281zm212.29 23.812h41.531c14.859 16.734 30.938 25.266 47.812 25.266 13.359 0 26.391-5.4375 38.766-16.172 46.547-40.359 77.812-150.47 77.812-273.98 0-159.84-52.312-289.82-116.58-289.82-35.531 0-68.484 39.047-90.562 107.16h-38.438c20.812-69.141 66.328-159.24 138.61-159.84 90.188 0 163.55 151.87 163.55 338.53 0 185.81-72.984 337.78-162.66 338.72-1.875-0.65625-51.703 6.375-99.844-69.844zm238.64 37.828h-63.281c1.6875-1.7812 3.375-3.5156 5.0625-5.3906h58.219c3.5625 0 3.5625 5.3906 0 5.3906zm41.812-84.469h-49.219c-3.6562 0-2.5781-5.3906 0-5.3906h49.219c3.5625 0 3.5625 5.3906 0 5.3906zm395.34-21.469c-0.65625 8.9062-8.5312 16.125-17.578 16.125h-339.52c6.0938-15.188 11.578-31.406 16.312-48.609h119.91c9.9375 0 18.047-8.625 18.047-19.219v-201.24c0-10.594-8.1094-19.219-18.047-19.219h-102c-1.0312-9.9375-2.25-19.734-3.7031-29.297h278.11c3.6094 0 3.6094-5.4375 0-5.4375h-278.95c-4.2188-26.344-9.9375-51.234-16.969-74.344h354.47c9.4219 0 17.25 8.1094 16.359 19.266z"/>
  <path d="m1058.9 615.89h-124.45c-6.7031 0-12.141 5.7656-12.141 12.844v72.656c0 7.0781 5.4375 12.844 12.141 12.844h124.45c6.7031 0 12.141-5.7656 12.141-12.844v-72.656c0-7.0781-5.4375-12.844-12.141-12.844zm6.7031 85.5c0 4.0781-3 7.4062-6.7031 7.4062h-124.45c-3.7031 0-6.7031-3.3281-6.7031-7.4062v-72.656c0-4.0781 3-7.4062 6.7031-7.4062h124.45c3.7031 0 6.7031 3.3281 6.7031 7.4062z"/>
  <path d="m417.52 761.06h-143.44c-6.1406 0-11.109 4.9688-11.109 11.109v72.281c0 6.1406 4.9688 11.109 11.109 11.109h143.44c5.7656 0 10.5-4.6875 10.5-10.5v-73.547c0-5.7656-4.6875-10.453-10.5-10.453zm5.0625 84c0 2.7656-2.25 5.0625-5.0625 5.0625h-143.44c-3.1406 0-5.6719-2.5312-5.6719-5.6719v-72.281c0-3.1406 2.5312-5.6719 5.6719-5.6719h143.44c2.7656 0 5.0625 2.25 5.0625 5.0625z"/>
  <path d="m404.06 681.66h-33.75c-3.6094 0-3.6094 5.4375 0 5.4375h33.75c3.6094 0 3.6094-5.4375 0-5.4375z"/>
  <path d="m290.02 792.37 0.09375 15.516c-1.4531-1.3594-1.875-0.51562-12.984-1.1719 0.1875-4.6406 0.32812-9.2812 0.28125-13.875-0.046875-3.6562-5.4844-3.6094-5.4375 0.046875 0.09375 10.828-0.46875 21.797-1.5469 32.625-0.375 3.5625 5.0625 4.1719 5.4375 0.5625 0.46875-4.5938 0.75-9.2344 1.0312-13.875 11.016 0.046875 11.766 1.0312 13.266-0.375l0.09375 13.453c0.046875 3.6562 5.4844 3.5625 5.4375-0.046875l-0.1875-32.906c-0.046875-3.6094-5.5312-3.5625-5.4844 0.046875z"/>
  <path d="m332.81 792.28c-13.219-0.84375-24.844-0.98438-23.766-0.9375-3.6094 0-3.6094 5.3906-0.046875 5.4375 2.5781 0.046875 5.2031 0.23438 7.7812 0.32812 0.375 8.9062 0.23438 17.906-0.46875 26.719-0.28125 3.6094 5.1562 4.0312 5.4375 0.42188 0.70312-8.9062 0.84375-17.953 0.46875-26.953 1.0781 0.046875 11.484 0.42188 10.406 0.42188 3.5156 0.046875 3.7031-5.2031 0.1875-5.4375z"/>
  <path d="m366.74 790.13c-4.0781 5.3438-7.1719 11.438-9.1875 17.859l-8.2031-13.969c-1.3594-2.3438-4.9688-1.4062-5.0625 1.2656l-1.2188 27.047c-0.14062 3.6094 5.2969 3.8906 5.4375 0.23438l0.79688-17.859c6.6094 10.266 6.5156 13.594 9.7031 13.031 1.125-0.1875 2.0156-1.0781 2.2031-2.1562 1.2656-6.5625 3.75-12.891 7.4531-18.656l-0.70312 30.469c-0.09375 3.6094 5.3906 3.75 5.4375 0.14062l0.84375-34.875c0.09375-4.9219-4.6875-6.2812-7.5-2.5312z"/>
  <path d="m415.69 818.76c-11.438 3.9375-19.734 3.6094-22.547 3.8438 0.09375-2.0625 3.7969-13.219 1.7812-30.188-0.42188-3.6094-5.8594-2.9062-5.3906 0.65625 2.7188 22.969-5.4375 30.141 0.32812 34.078 4.125 2.7656 21.422-1.125 27.609-3.2344 3.375-1.1719 1.6406-6.3281-1.7812-5.1562z"/>
  <path d="m135.32 506.53c-1.3125 13.078 2.6719 33.469 19.031 36.141 22.078 3.6094 32.062-21.234 24.234-44.625-8.9531-27-40.453-19.078-43.266 8.4844zm34.359 26.203c-3.5625 3.5625-9.4219 5.3438-14.438 4.5469-15.703-2.5781-19.641-33.234-8.2031-45 8.3906-8.625 21.375-7.7344 26.391 7.4531 3.3281 9.9375 3.6094 25.688-3.75 33z"/>
  <path d="m312.05 506.53c-1.6875 16.969 5.1562 36.375 22.453 36.375 21.609 0 27.562-24.891 20.859-44.906-9.0938-27.188-40.547-18.656-43.312 8.5312zm19.922 30.75c-12.562-2.0625-15.562-19.594-14.484-30.188 2.1094-21.141 25.453-29.156 32.672-7.3125 5.9531 17.859 0.32812 40.547-18.188 37.5z"/>
  <path d="m435.32 506.53c-1.7344 17.016 5.1094 36.375 22.406 36.375 21.609 0 27.562-24.75 20.859-44.906-9.0469-27.094-40.5-18.844-43.266 8.5312zm19.922 30.75c-12.562-2.0625-15.562-19.594-14.484-30.188 2.1094-21.141 25.453-29.156 32.672-7.3594 6 18.047 0.375 40.547-18.188 37.547z"/>
  <path d="m216.14 486.84v53.766c0 3.6094 5.4375 3.6094 5.4375 0v-53.766c0-3.6094-5.4375-3.6094-5.4375 0z"/>
  <path d="m270.47 486.84v53.766c0 3.6094 5.4375 3.6094 5.4375 0v-53.766c0-3.6094-5.4375-3.6094-5.4375 0z"/>
  <path d="m393.74 486.84v53.766c0 3.6094 5.4375 3.6094 5.4375 0v-53.766c0-3.6094-5.4375-3.6094-5.4375 0z"/>
  <path d="m517.03 486.84v53.766c0 3.6094 5.4375 3.6094 5.4375 0v-53.766c0-3.6094-5.4375-3.6094-5.4375 0z"/>
  <path d="m96.047 395.48h100.22c0 1.5 1.2188 2.7188 2.7188 2.7188l147.89 0.046875c7.2656 0 13.406-6.1406 13.406-13.406v-201.28c0-14.906-18.797-19.922-18.797-13.406h-103.08c0-1.5-1.2188-2.7188-2.7188-2.7188-7.2656 0-13.688 4.875-15.562 11.859-10.312 38.953-8.6719 30.75-8.625 32.906l-115.45-0.046875c-11.625 0-21.047 9.4219-21.047 21.047v141.24c0 11.625 9.4219 21.047 21.047 21.047zm147.1-208.45h33.75c3.5625 0 3.5625 5.3906 0 5.3906h-33.75c-3.5625 0-3.5625-5.3906 0-5.3906zm-26.484 25.875 0.60938-2.3438h104.48c3.5625 0 3.5625 5.3906 0 5.3906-111.33-0.84375-108.14 1.7812-109.45-1.875 0.32812 0.28125 0.5625 0.65625 0.98438 0.75 1.5 0.375 3-0.46875 3.375-1.9219zm-78.141 64.594c0-4.6406 3.75-8.3906 8.3906-8.3906h143.44c4.3125 0 7.7812 3.4688 7.7812 7.7812v73.547c0 4.3125-3.4688 7.7812-7.7812 7.7812l-143.44-0.046875c-4.6406 0-8.3906-3.75-8.3906-8.3906z"/>
  <path d="m169.13 333.89c-0.32812-4.5938-0.046875-9.1875 0.51562-13.734 1.125 0.046875 21.703 0.60938 20.391 0.5625 0.28125 4.7812 0.46875 9.6094 0.5625 14.344 0.09375 3.6094 5.5781 3.4688 5.4375-0.14062-0.42188-14.484-0.84375-29.484-4.6875-43.828-2.5312-9.6094-10.828-11.062-16.734-1.5-8.25 13.312-12.094 29.203-10.922 44.766 0.28125 3.5625 5.7188 3.0938 5.4375-0.46875zm10.172-41.484c2.9531-4.7812 5.3438-5.4844 6.8438 0.046875 1.9688 7.4062 3 15.141 3.6094 22.875l-19.172-0.60938c1.5938-7.875 4.4531-15.469 8.7188-22.312z"/>
  <path d="m216.79 330.79-0.79688-18.656c1.1719 0 7.0781 1.5938 13.688-2.25 13.312-7.7344 15.141-29.438-9.375-28.828-1.7812 0.046875-3.7031 0.09375-5.5781 0.79688-3.375 1.2188-5.2969 3.4219-5.2031 5.9531l1.7812 43.266c0.1875 3.5625 5.6719 3.3281 5.4844-0.28125zm3.6094-44.344c4.8281-0.09375 10.781 0.42188 12.844 4.7812 1.6875 3.6094-0.42188 10.5-6.2812 13.922-5.4844 3.1875-9.375 1.1719-11.156 1.7344l-0.89062-18.938c0.9375-1.4062 4.4062-1.4531 5.4844-1.5z"/>
  <path d="m247.45 284.76c2.7656 0.42188 5.5312 0.5625 8.3438 0.65625-1.5 1.5938-0.51562 0.46875 0.70312 41.344 0.14062 3.6094 5.5781 3.4219 5.4375-0.23438-1.875-41.109-0.84375-39.609-2.2969-41.109 2.2969-0.09375 4.5938-0.14062 6.8438-0.46875 3.6094-0.46875 2.8125-5.9531-0.75-5.3906-5.8125 0.79688-11.719 0.70312-17.484-0.1875-3.5156-0.5625-4.3594 4.8281-0.79688 5.3906z"/>
  <path d="m263.29 329.11-15.047 2.25c-3.3281 0.46875-2.9531 5.4375 0.42188 5.4375 0.28125 0 15.141-2.2031 15.422-2.25 3.5625-0.5625 2.8594-5.9531-0.79688-5.4375z"/>
  <path d="m234.42 674.39h-67.734c-3.6094 0-3.6094 5.4375 0 5.4375h67.734c3.6094 0 3.6094-5.4375 0-5.4375z"/>
  <path d="m200.86 940.92h75.047c3.6094 0 3.6094-5.4375 0-5.4375h-75.047c-3.6094-0.046875-3.6094 5.4375 0 5.4375z"/>
  <path d="m481.97 210.94c3.6094 0 3.6094-5.4375 0-5.4375h-81.188c-3.6094 0-3.6094 5.4375 0 5.4375z"/>
  <path d="m574.36 182.02c3.6094 0 3.6094-5.4375 0-5.4375h-48c-3.6094 0-3.6094 5.4375 0 5.4375z"/>
  <path d="m392.86 967.4h-67.734c-3.6094 0-3.6094 5.4375 0 5.4375h67.734c3.6094 0 3.6094-5.4375 0-5.4375z"/>
  <path d="m1091.5 482.02c0 20.109-22.547 20.109-22.547 0s22.547-20.109 22.547 0"/>
  <path d="m1035.1 466.92c-6.1875 0-11.297 6.75-11.297 15.094s5.1094 15.094 11.297 15.094c6.2812 0 11.297-6.75 11.297-15.094 0-8.2969-5.0156-15.094-11.297-15.094z"/>
  <path d="m990.05 466.92c-6.1875 0-11.297 6.75-11.297 15.094s5.1094 15.094 11.297 15.094c6.2812 0 11.297-6.75 11.297-15.094 0-8.2969-5.0156-15.094-11.297-15.094z"/>
  <path d="m731.9 173.81c-9.7969 19.125 7.0312 27.844 14.297 21.328 2.7188-2.4375-0.98438-6.4688-3.6562-4.0781-3.0938 2.7656-12.609-1.5469-5.8125-14.766 17.438-33.938 59.578-4.875 35.484 42.844-5.5312 11.016-13.781 21.234-20.391 29.391-2.2969 2.8125 2.0156 6.2344 4.2188 3.4219 6.75-8.3906 15.188-18.844 21-30.375 27.656-54.75-24.422-87.938-45.141-47.766z"/>
  <path d="m781.18 261.61-21.188 16.078c-2.8594 2.2031 0.42188 6.5156 3.2812 4.3594l21.188-16.078c2.8594-2.1562-0.42188-6.5156-3.2812-4.3594z"/>
  <path d="m806.39 333.14c-3.7031 0.51562-2.7188 6 0.70312 5.3906 7.0781-0.9375 13.547-5.2031 17.25-11.297 10.031-16.5-2.25-36.984-24-38.672-21.984-1.6875-40.172 15.047-56.344 24.328-3.1406 1.7812-0.42188 6.5156 2.7188 4.7344 16.078-9.2344 33.234-25.078 53.203-23.625 18.375 1.4062 27.375 17.859 19.734 30.375-2.7656 4.6875-7.875 8.0625-13.266 8.7656z"/>
  <path d="m808.36 947.26-71.25-18.516c-3.4688-0.9375-4.875 4.3594-1.3594 5.2969l61.734 16.078c-15.656 4.1719-31.781 6.0469-48.094 5.6719-1.8281-0.32812-3.6562 2.25-2.3438 4.2188 7.6406 11.531 16.828 21.703 27.469 30.422-72.703-5.7656-35.297-32.625-68.812 33.516 1.4531-17.391 0.9375-34.922-1.5469-52.219-0.51562-3.5625-5.9062-2.8125-5.3906 0.75 3.0938 21.562 3.0469 43.406-0.14062 64.969-0.42188 3 3.6094 4.3125 5.0625 1.7344 9.4688-16.781 17.484-34.547 23.812-52.828 17.953 6.0469 36.609 9.4219 55.547 10.031 3.1406-0.1875 3.6094-3.5625 1.6875-4.9688-11.719-8.3906-21.891-18.469-30.281-30.141 18.375-0.09375 36.469-3.0469 54-8.7188 2.625-0.9375 2.5312-4.6406-0.09375-5.2969z"/>
  <path d="m739.22 1007.9c4.3594 12.094 10.031 23.766 16.781 34.734 1.875 3 6.5625 0.23438 4.6406-2.8594-6.5625-10.641-12.047-22.031-16.312-33.75-1.2656-3.375-6.3281-1.5-5.1094 1.875z"/>
  <path d="m822.52 991.74c3.375 1.4531 5.4375-3.6094 2.1562-5.0156-11.297-4.9219-23.016-9.2344-34.828-12.938-1.4531-0.46875-2.9531 0.375-3.4219 1.7812-1.4531 4.7344 4.2188 2.2969 36.094 16.172z"/>
 </g>
</svg>
